<?xml version="1.0"?>
<svg xmlns="http://www.w3.org/2000/svg" id="Solid_revise" height="512px" viewBox="0 0 512 512" width="512px" data-name="Solid revise"><g><g><path d="m390 336h-44a34.0383 34.0383 0 0 1 -34-34v-4.125a23.932 23.932 0 0 1 -6.6021-9.8037l-23.2656-65.1436a127.8978 127.8978 0 0 1 -8.6256-181.1823 158.59 158.59 0 0 0 -23.5067-1.7454h-12c-87.1216 0-158 70.8789-158 158v55.041l-46.0742 53.7529a7.9976 7.9976 0 0 0 -1.9258 5.2061v32a8 8 0 0 0 8 8h49.3232l11.82 65.0088a27.9863 27.9863 0 0 0 27.5482 22.9912h95.7656a2.0081 2.0081 0 0 0 1.9229-1.4512l13.9277-48.747 15.3848 4.3964-13.9278 48.7471a18.0764 18.0764 0 0 1 -17.3076 13.0547h-40.457v32a8 8 0 0 0 8 8h160a8 8 0 0 0 8-8v-54.63l34.4693-97.6631a34.1734 34.1734 0 0 1 -4.4693.2931zm-216.1-138.1006-9.9 18.1006-9.8995-18.1006-18.1005-9.8994 18.1005-9.8994 9.8995-18.1006 9.9 18.1006 18.1 9.8994zm56.2427 88.2427-14.1427 25.8579-14.1422-25.8579-25.8578-14.1421 25.8578-14.1421 14.1422-25.8579 14.1422 25.8579 25.8578 14.1421z" data-original="#000000" class="active-path" data-old_color="#000000" fill="#374957"/><g><path d="m328 302a18.0206 18.0206 0 0 0 18 18h44a18.0206 18.0206 0 0 0 18-18v-14h-80z" data-original="#000000" class="active-path" data-old_color="#000000" fill="#374957"/><path d="m425.066 256h-114.132l5.714 16h102.704z" data-original="#000000" class="active-path" data-old_color="#000000" fill="#374957"/><g><path d="m322.71 129.998a8.001 8.001 0 1 0 12.2242 9.9961 8.001 8.001 0 0 1 6.9252-3.9941h52.2812a8.001 8.001 0 0 1 6.9248 3.9941 8.0013 8.0013 0 1 0 12.2246-9.9961 7.9993 7.9993 0 0 1 0-11.996 8.0019 8.0019 0 0 0 -9.3609-12.8916 8.0048 8.0048 0 0 1 -7.1174.5217c-2.5037 2.4563-4.8117 7.5515-4.8117 14.3679h-16c0-13.1868 5.6931-24.2734 14.0528-29.2253a7.9974 7.9974 0 0 0 -13.0245 1.2976 7.9913 7.9913 0 0 1 -7.9941 3.9941 8.145 8.145 0 0 0 -2.0684 0 8 8 0 0 1 -7.9941-3.9941 8.0014 8.0014 0 0 0 -14.9717 3.9277c0 .0508.0008.1016.0015.1526a8.2482 8.2482 0 0 0 .0761.9734q.0361.2592.0549.518c1.2803 7.9351 11.6893 14.356 23.8675 14.356v16c-18.5568 0-34.202-10.1619-38.7-23.8945a8.0007 8.0007 0 0 0 -6.59 13.8965 7.9993 7.9993 0 0 1 0 11.996z" data-original="#000000" class="active-path" data-old_color="#000000" fill="#374957"/><path d="m376 240v-64a8 8 0 0 1 .8447-3.5781l10.211-20.4219h-38.1114l10.211 20.4219a8 8 0 0 1 .8447 3.5781v64z" data-original="#000000" class="active-path" data-old_color="#000000" fill="#374957"/><path d="m368 16a112.0016 112.0016 0 0 0 -72.2007 197.624l9.42 26.376h38.7807v-62.1113l-9.409-18.8179a23.9939 23.9939 0 0 1 -27.3737-35.0708 23.9974 23.9974 0 0 1 20.7827-36q.68 0 1.3574.0381a23.9947 23.9947 0 0 1 38.6426-9.9199 23.9947 23.9947 0 0 1 38.6426 9.92q.6768-.0382 1.3574-.0382a23.9974 23.9974 0 0 1 20.7827 36 23.987 23.987 0 0 1 -27.3737 35.0708l-9.409 18.8179v62.1113h38.7807l9.42-26.376a112.0016 112.0016 0 0 0 -72.2007-197.624z" data-original="#000000" class="active-path" data-old_color="#000000" fill="#374957"/></g></g></g><script xmlns="" class="active-path" style=""/></g> </svg>
