<?xml version="1.0"?>
<svg xmlns="http://www.w3.org/2000/svg" id="Layer_5" enable-background="new 0 0 64 64" height="512px" viewBox="0 0 64 64" width="512px"><g><g><path d="m5 53h6v-6h-6zm2-4h2v2h-2z" data-original="#000000" class="active-path" data-old_color="#000000" fill="#374957"/><path d="m13 53h6v-6h-6zm2-4h2v2h-2z" data-original="#000000" class="active-path" data-old_color="#000000" fill="#374957"/><path d="m5 35h6v-6h-6zm2-4h2v2h-2z" data-original="#000000" class="active-path" data-old_color="#000000" fill="#374957"/><path d="m13 35h6v-6h-6zm2-4h2v2h-2z" data-original="#000000" class="active-path" data-old_color="#000000" fill="#374957"/><path d="m9 15h2v2h-2z" data-original="#000000" class="active-path" data-old_color="#000000" fill="#374957"/><path d="m5 15h2v2h-2z" data-original="#000000" class="active-path" data-old_color="#000000" fill="#374957"/><path d="m5 11h2v2h-2z" data-original="#000000" class="active-path" data-old_color="#000000" fill="#374957"/><path d="m9 11h2v2h-2z" data-original="#000000" class="active-path" data-old_color="#000000" fill="#374957"/><path d="m35.798 13.5h6.403v2h-6.403z" transform="matrix(.625 -.781 .781 .625 3.308 35.885)" data-original="#000000" class="active-path" data-old_color="#000000" fill="#374957"/><path d="m37 19h6v2h-6z" data-original="#000000" class="active-path" data-old_color="#000000" fill="#374957"/><path d="m60 19.001c-7.404 0-14.515 2.257-20.563 6.526l-5.814 4.104-.519-.779c-.068-.102-.104-.22-.104-.342v-.84c0-.162.065-.321.182-.437l1.05-1.052c.488-.486.768-1.16.768-1.851v-.33c0-.998-.555-1.895-1.447-2.342l-2.21-1.105c-.212-.106-.343-.318-.343-.553s.131-.447.342-.553l2.211-1.105c.892-.447 1.447-1.344 1.447-2.342v-12c0-1.654-1.346-3-3-3h-28c-1.654 0-3 1.346-3 3v14c0 .771.301 1.468.78 2-.479.532-.78 1.229-.78 2v14c0 .771.301 1.468.78 2-.479.532-.78 1.229-.78 2v14c0 1.654 1.346 3 3 3h28c1.654 0 3-1.346 3-3v-14c0-.771-.301-1.468-.78-2 .48-.532.78-1.229.78-2v-1.349l10.685-4.748c.648-.288 1.304-.548 1.964-.793l7.432 31.58c.32 1.36 1.52 2.31 2.918 2.31.222 0 .45-.025.69-.08 1.608-.38 2.609-1.999 2.231-3.608l-7.478-31.781c1.94-.345 3.913-.53 5.913-.53h.645c1.654 0 3-1.346 3-3v-2c0-1.654-1.346-3-3-3zm-27.342 4.446c.211.106.342.318.342.553v.33c0 .162-.065.321-.182.437l-1.05 1.052c-.488.486-.768 1.16-.768 1.851v.84c0 .519.152 1.021.44 1.452l.548.823-.988.697v.869c0 1.235.854 2.268 2 2.559v1.09c0 .552-.449 1-1 1h-28c-.551 0-1-.448-1-1v-14c0-.552.449-1 1-1h25.196c.235.573.672 1.052 1.251 1.342zm-29.658-19.447c0-.552.449-1 1-1h28c.551 0 1 .448 1 1v12c0 .235-.131.447-.342.553l-2.211 1.105c-.579.29-1.015.769-1.25 1.342h-25.197c-.551 0-1-.448-1-1zm30 50c0 .552-.449 1-1 1h-28c-.551 0-1-.448-1-1v-14c0-.552.449-1 1-1h28c.551 0 1 .448 1 1zm25.974 5.77c.126.537-.208 1.077-.733 1.202-.608.131-1.09-.213-1.214-.742l-7.474-31.762c.639-.195 1.283-.37 1.931-.526zm2.026-35.769c0 .552-.449 1-1 1h-.645c-5.021 0-9.894 1.034-14.482 3.073l-10.959 4.87c-.365.168-.805-.069-.895-.438l7.571-5.344c5.709-4.031 12.421-6.161 19.41-6.161.551 0 1 .448 1 1z" data-original="#000000" class="active-path" data-old_color="#000000" fill="#374957"/></g><script xmlns="" class="active-path" style=""/></g> </svg>
